<?xml version="1.0" encoding="UTF-8" standalone="no"?>
<svg
   xmlns:dc="http://purl.org/dc/elements/1.1/"
   xmlns:cc="http://creativecommons.org/ns#"
   xmlns:rdf="http://www.w3.org/1999/02/22-rdf-syntax-ns#"
   xmlns:svg="http://www.w3.org/2000/svg"
   xmlns="http://www.w3.org/2000/svg"
   xmlns:sodipodi="http://sodipodi.sourceforge.net/DTD/sodipodi-0.dtd"
   xmlns:inkscape="http://www.inkscape.org/namespaces/inkscape"
   height="20.116354pt"
   viewBox="0 -15 30.440096 20.116354"
   width="30.440092pt"
   version="1.1"
   id="svg40"
   sodipodi:docname="AlightLiaoLah_Busstop.svg"
   inkscape:version="0.92.3 (2405546, 2018-03-11)">
  <metadata
     id="metadata46">
    <rdf:RDF>
      <cc:Work
         rdf:about="">
        <dc:format>image/svg+xml</dc:format>
        <dc:type
           rdf:resource="http://purl.org/dc/dcmitype/StillImage" />
        <dc:title></dc:title>
      </cc:Work>
    </rdf:RDF>
  </metadata>
  <defs
     id="defs44">
    <linearGradient
       id="a"
       gradientUnits="userSpaceOnUse"
       x1="0"
       x2="512"
       y1="256"
       y2="256">
      <stop
         offset="0"
         stop-color="#00f38d"
         id="stop1633" />
      <stop
         offset="1"
         stop-color="#009eff"
         id="stop1635" />
    </linearGradient>
  </defs>
  <sodipodi:namedview
     pagecolor="#ffffff"
     bordercolor="#666666"
     borderopacity="1"
     objecttolerance="10"
     gridtolerance="10"
     guidetolerance="10"
     inkscape:pageopacity="0"
     inkscape:pageshadow="2"
     inkscape:window-width="1920"
     inkscape:window-height="1013"
     id="namedview42"
     showgrid="false"
     inkscape:zoom="11.512195"
     inkscape:cx="20.307867"
     inkscape:cy="17.750992"
     inkscape:window-x="1911"
     inkscape:window-y="-9"
     inkscape:window-maximized="1"
     inkscape:current-layer="svg40" />
  <g
     style="fill:#083864;fill-opacity:0.99607843"
     id="g1764"
     transform="matrix(4.8364337,0,0,3.9518831,-555.00062,-66.347544)" />
  <g
     style="fill:#083864;fill-opacity:0.99607843"
     id="g1766"
     transform="matrix(4.8364337,0,0,3.9518831,-555.00062,-66.347544)" />
  <g
     style="fill:#083864;fill-opacity:0.99607843"
     id="g1768"
     transform="matrix(4.8364337,0,0,3.9518831,-555.00062,-66.347544)" />
  <g
     style="fill:#083864;fill-opacity:0.99607843"
     id="g1770"
     transform="matrix(4.8364337,0,0,3.9518831,-555.00062,-66.347544)" />
  <g
     style="fill:#083864;fill-opacity:0.99607843"
     id="g1772"
     transform="matrix(4.8364337,0,0,3.9518831,-555.00062,-66.347544)" />
  <g
     style="fill:#083864;fill-opacity:0.99607843"
     id="g1774"
     transform="matrix(4.8364337,0,0,3.9518831,-555.00062,-66.347544)" />
  <g
     style="fill:#083864;fill-opacity:0.99607843"
     id="g1776"
     transform="matrix(4.8364337,0,0,3.9518831,-555.00062,-66.347544)" />
  <g
     style="fill:#083864;fill-opacity:0.99607843"
     id="g1778"
     transform="matrix(4.8364337,0,0,3.9518831,-555.00062,-66.347544)" />
  <g
     style="fill:#083864;fill-opacity:0.99607843"
     id="g1780"
     transform="matrix(4.8364337,0,0,3.9518831,-555.00062,-66.347544)" />
  <g
     style="fill:#083864;fill-opacity:0.99607843"
     id="g1782"
     transform="matrix(4.8364337,0,0,3.9518831,-555.00062,-66.347544)" />
  <g
     style="fill:#083864;fill-opacity:0.99607843"
     id="g1784"
     transform="matrix(4.8364337,0,0,3.9518831,-555.00062,-66.347544)" />
  <g
     style="fill:#083864;fill-opacity:0.99607843"
     id="g1786"
     transform="matrix(4.8364337,0,0,3.9518831,-555.00062,-66.347544)" />
  <g
     style="fill:#083864;fill-opacity:0.99607843"
     id="g1788"
     transform="matrix(4.8364337,0,0,3.9518831,-555.00062,-66.347544)" />
  <g
     style="fill:#083864;fill-opacity:0.99607843"
     id="g1790"
     transform="matrix(4.8364337,0,0,3.9518831,-555.00062,-66.347544)" />
  <g
     style="fill:#083864;fill-opacity:0.99607843"
     id="g1792"
     transform="matrix(4.8364337,0,0,3.9518831,-555.00062,-66.347544)" />
  <g
     transform="matrix(0.19203285,0,0,0.19203285,25.07893,-4.4697744)"
     id="g2483"
     style="stroke:#000000;stroke-opacity:0.99607843;stroke-width:0.78111641;stroke-miterlimit:4;stroke-dasharray:none">
    <g
       id="g2492"
       transform="translate(-8.1446532)"
       style="stroke:#000000;stroke-opacity:0.99607843;stroke-width:0.78111641;stroke-miterlimit:4;stroke-dasharray:none">
      <circle
         transform="scale(-1,1)"
         r="4.8200002"
         style="fill:#ffe5cb;fill-opacity:0.99607843;stroke:#000000;stroke-opacity:0.99607843;stroke-width:0.78111641;stroke-miterlimit:4;stroke-dasharray:none"
         cx="-7.559803"
         cy="-8.5468121"
         id="circle2385" />
      <path
         sodipodi:nodetypes="csccccccccccccccccccccccccc"
         inkscape:connector-curvature="0"
         style="fill:#ffe5cb;fill-opacity:0.99607843;stroke:#000000;stroke-width:0.78111641;stroke-miterlimit:4;stroke-dasharray:none;stroke-opacity:0.99607843"
         d="m -24.615186,39.720554 c 1.973302,-3.715127 6.900142,-3.490776 8.812995,-8.030827 3.248355,-7.709795 5.754266,-15.057223 6.4789956,-16.618141 0.1,-0.431407 0.232,-0.869122 0.414,-1.30936 1.312,-3.225465 2.684,-6.4143485 4.084,-9.5817881 -1.484,0.1463253 -2.972,0.2913893 -4.455,0.4364533 -1.0199996,2.5354651 -2.0349996,5.0721919 -3.0529996,7.6063958 -1.639,4.083234 -6.49,0.490695 -4.855,-3.581187 1.312,-3.2708764 2.867,-10.6275097 6.254,-10.9592645 3.6039996,-0.3531988 7.2069996,-0.7063979 10.80999961,-1.0583355 0.088,-0.00883 0.163,0.00631 0.247,0.00631 2.72399999,-0.9195792 5.91699999,1.5048801 6.49499999,5.0078585 1.842,5.0318261 4.4870004,8.9611665 8.9250004,10.6010195 3.474,1.281608 1.994,8.127365 -1.495,6.840711 -4.3870004,-1.61967 -7.5380004,-4.790895 -9.9270004,-8.964952 -1.447,3.254479 -2.86,6.52914 -4.21399999,9.849211 2.97699999,2.589705 5.57799999,5.721825 7.85699999,9.335809 0.636,1.00788 0.745,2.044771 0.531,2.956782 0.008,0.340585 -0.009,0.693784 -0.086,1.077258 -0.877,4.379668 -1.753,8.751768 -2.631,13.126393 -0.931,4.662228 -6.782,3.337731 -5.84299999,-1.354772 0.835,-4.169011 1.67099999,-8.338021 2.50599999,-12.509555 -2.09399999,-3.114459 -4.563,-5.824002 -7.384,-7.847328 -0.664,-0.476819 -1.082,-1.134022 -1.314,-1.85808 -2.284158,4.535371 -2.366385,9.358543 -4.2505236,13.546396 -1.886382,4.191732 -5.856948,6.748604 -9.534977,8.228817 -3.60466,1.555826 -6.72949,-1.121181 -4.37249,-4.945822 z"
         id="path2387" />
    </g>
  </g>
  <g
     id="g2393"
     transform="matrix(1.7689224,0,0,1.7689224,230.03126,85.498193)" />
  <g
     id="g2395"
     transform="matrix(1.7689224,0,0,1.7689224,230.03126,85.498193)" />
  <g
     id="g2397"
     transform="matrix(1.7689224,0,0,1.7689224,230.03126,85.498193)" />
  <g
     id="g2399"
     transform="matrix(1.7689224,0,0,1.7689224,230.03126,85.498193)" />
  <g
     id="g2401"
     transform="matrix(1.7689224,0,0,1.7689224,230.03126,85.498193)" />
  <g
     id="g2403"
     transform="matrix(1.7689224,0,0,1.7689224,230.03126,85.498193)" />
  <g
     id="g2405"
     transform="matrix(1.7689224,0,0,1.7689224,230.03126,85.498193)" />
  <g
     id="g2407"
     transform="matrix(1.7689224,0,0,1.7689224,230.03126,85.498193)" />
  <g
     id="g2409"
     transform="matrix(1.7689224,0,0,1.7689224,230.03126,85.498193)" />
  <g
     id="g2411"
     transform="matrix(1.7689224,0,0,1.7689224,230.03126,85.498193)" />
  <g
     id="g2413"
     transform="matrix(1.7689224,0,0,1.7689224,230.03126,85.498193)" />
  <g
     id="g2415"
     transform="matrix(1.7689224,0,0,1.7689224,230.03126,85.498193)" />
  <g
     id="g2417"
     transform="matrix(1.7689224,0,0,1.7689224,230.03126,85.498193)" />
  <g
     id="g2419"
     transform="matrix(1.7689224,0,0,1.7689224,230.03126,85.498193)" />
  <g
     id="g2421"
     transform="matrix(1.7689224,0,0,1.7689224,230.03126,85.498193)" />
  <g
     id="g2287"
     transform="matrix(0.08689116,0,0,0.08689116,0,-19.708672)">
    <g
       transform="translate(613.44745,72.643318)"
       id="g2160">
      <g
         id="g2094"
         transform="translate(-369.19963,-48.97142)">
        <g
           id="g2082"
           transform="matrix(0.08426703,0,0,0.08385398,-166.42125,152.95233)">
          <g
             id="g2022">
            <path
               id="path2018"
               d="M 0,368.617 V 198.499 h 396.859 v 170.118 c 0,15.66 -12.57,28.334 -28.137,28.381 H 28.369 C 12.707,396.998 0,384.301 0,368.617"
               inkscape:connector-curvature="0"
               style="clip-rule:evenodd;fill:none;fill-rule:evenodd" />
            <path
               id="path2020"
               d="M 0,198.499 V 28.367 C 0,12.707 12.707,0 28.369,0 h 340.354 c 15.566,0.045 28.137,12.742 28.137,28.367 v 170.132 z"
               inkscape:connector-curvature="0"
               style="clip-rule:evenodd;fill:none;fill-rule:evenodd" />
          </g>
          <path
             id="path2024"
             d="M 76.558,207.97"
             inkscape:connector-curvature="0"
             style="clip-rule:evenodd;fill:#0d7abf;fill-rule:evenodd" />
          <g
             id="g2080">
            <g
               id="g2030">
              <path
                 id="path2026"
                 d="m 198.423,12.982 c 102.383,0 185.494,83.098 185.494,185.48 0,35.738 -10.129,69.125 -27.668,97.448 l -0.057,0.086 H 40.671 C 23.132,267.674 12.942,234.202 12.942,198.462 12.943,96.08 96.054,12.982 198.423,12.982"
                 inkscape:connector-curvature="0"
                 style="fill:#ffffff" />
              <path
                 id="path2028"
                 d="m 356.219,295.997 c -32.704,52.814 -91.183,88.019 -157.828,88.019 -66.632,0 -125.045,-35.117 -157.75,-87.931 h 315.521 z"
                 inkscape:connector-curvature="0" />
            </g>
            <g
               id="g2036">
              <path
                 id="path2032"
                 d="m 198.422,22.916 c 96.903,0 175.563,78.647 175.563,175.549 0,33.824 -9.586,65.426 -26.186,92.231 l -0.054,0.083 H 49.117 C 32.517,263.97 22.873,232.291 22.873,198.465 22.874,101.563 101.535,22.916 198.422,22.916"
                 inkscape:connector-curvature="0"
                 style="fill:#0d7abf" />
              <path
                 id="path2034"
                 d="m 347.771,290.779 c -30.953,49.985 -86.301,83.305 -149.377,83.305 -63.065,0 -118.351,-33.24 -149.304,-83.224 h 298.627 z"
                 inkscape:connector-curvature="0"
                 style="fill:#ffffff" />
            </g>
            <rect
               id="rect2038"
               height="9.9309998"
               width="310.67801"
               y="285.81699"
               x="42.896"
               style="fill:#ffffff" />
            <rect
               id="rect2040"
               height="9.9309998"
               width="298.68201"
               y="295.99701"
               x="49.089001" />
            <path
               id="path2042"
               d="m 295.021,265.043 c 0.1,4.777 4.021,8.578 8.743,8.499 4.626,-0.062 8.421,-3.962 8.431,-8.763 -0.024,-4.673 -3.945,-8.472 -8.762,-8.452 -4.725,0.1 -8.53,4.042 -8.412,8.716 m -6.854,0.196 c 0.046,8.566 7.127,15.366 15.633,15.184 8.564,-0.025 15.396,-7.131 15.229,-15.592 -0.095,-8.607 -7.149,-15.424 -15.735,-15.379 -8.51,0.201 -15.332,7.278 -15.127,15.787 z"
               inkscape:connector-curvature="0"
               style="clip-rule:evenodd;fill:#ffffff;fill-rule:evenodd" />
            <path
               id="path2044"
               d="m 184.872,266.743 c 0.118,4.729 4.03,8.517 8.763,8.432 4.815,-0.001 8.623,-3.911 8.509,-8.659 -0.09,-4.713 -4.008,-8.533 -8.766,-8.429 -4.792,0.003 -8.476,3.839 -8.506,8.656 m -6.836,0.148 c 0.154,8.471 7.258,15.327 15.764,15.144 8.559,-0.059 15.382,-7.156 15.22,-15.658 -0.183,-8.506 -7.177,-15.385 -15.658,-15.22 -8.569,0.046 -15.406,7.173 -15.326,15.734 z"
               inkscape:connector-curvature="0"
               style="clip-rule:evenodd;fill:#ffffff;fill-rule:evenodd" />
            <path
               id="path2046"
               d="m 268.665,229.395 -14.122,-20.479 -27.51,0.436 0.328,20.698 41.304,-0.655 m -45.123,-19.987 -17.056,0.252 -20.334,20.978 37.734,-0.58 z m -36.864,5.452 c 7.405,-7.861 14.25,-11.965 24.771,-12.124 l 37.921,-0.575 c 4.914,-0.037 9.533,2.412 12.09,6.694 l 14.077,20.366 47.337,6.735 c 2.736,1.017 4.387,3.5 4.406,6.299 l 0.273,15.562 c 0.09,3.74 -2.988,6.812 -6.766,6.875 -0.238,-9.455 -8,-16.971 -17.419,-16.957 -9.453,0.218 -17.087,8.064 -17.076,17.503 0.05,0.472 0.123,1.067 0.245,1.664 l -3.559,0.086 -72.23,1.13 -0.092,-1.772 c -0.02,-9.454 -7.84,-17.053 -17.422,-16.938 -9.459,0.185 -17.062,8.027 -16.846,17.501 l 0.007,1.653 -20.663,-1.322 -0.479,-25.869 c 0.064,-1.509 1.159,-2.987 2.574,-3.323 l 1.774,-0.29 c 5.129,-0.735 8.631,-3.449 12.053,-7.418 z"
               inkscape:connector-curvature="0"
               style="clip-rule:evenodd;fill:#ffffff;fill-rule:evenodd" />
            <g
               id="g2050">
              <path
                 id="path2048"
                 d="M 102.637,58.916 H 258.43 c 0.798,0.179 1.529,0.312 2.195,0.399 0.666,0.09 1.308,0.134 1.93,0.134 h 0.666 l 5.854,1.062 c 1.686,0.623 3.216,1.155 4.592,1.599 1.375,0.444 2.683,0.798 3.926,1.063 27.057,14.019 40.586,34.334 40.586,60.947 0,1.686 -0.066,3.394 -0.199,5.123 -0.133,1.729 -0.289,3.482 -0.466,5.257 -9.048,36.55 -31.095,47.889 -66.137,47.889 -1.862,0 -3.748,-0.043 -5.655,-0.133 -1.908,-0.088 -40.109,-0.221 -42.15,-0.399 h -65.271 l -10e-4,104.11 h -35.663 z m 35.131,91.538 h 109.618 c 2.748,0 5.011,0.177 6.787,0.531 0.352,-0.354 0.665,-0.531 0.931,-0.531 h 0.133 l 3.726,-0.533 3.195,-0.532 c 14.903,-7.719 22.354,-11.205 22.354,-24.337 0,-4.345 -0.888,-9.181 -2.661,-14.504 -4.081,-7.097 -9.227,-12.596 -15.437,-16.501 -3.017,-0.62 -5.677,-1.508 -7.983,-2.662 h -2.662 l -3.193,-0.531 H 137.768 Z"
                 inkscape:connector-curvature="0"
                 style="fill:#ffffff" />
            </g>
            <g
               id="g2078">
              <path
                 id="path2052"
                 d="m 113.798,319.78 -0.203,0.151 -0.861,0.305 -0.203,0.102 -0.203,0.051 c -0.245,0.143 -0.464,0.244 -0.659,0.304 l -0.253,0.05 -0.101,0.102 h -0.152 l -0.102,0.102 h -0.152 l -0.101,0.102 h -0.152 l -0.102,0.102 -0.202,0.051 -0.558,0.203 c -0.845,-3.066 -2.804,-4.299 -5.878,-3.699 -2.381,0.92 -3.547,2.693 -3.496,5.32 -0.312,2.728 0.346,4.788 1.976,6.182 1.343,0.912 2.745,1.148 4.206,0.709 1.841,-0.6 2.889,-1.799 3.142,-3.598 0.321,0.06 0.591,0.16 0.811,0.305 0.347,0.093 0.634,0.193 0.862,0.304 l 0.203,0.101 0.304,0.102 0.152,0.051 0.354,0.152 0.203,0.051 0.151,0.102 c 0.169,0.042 0.305,0.093 0.406,0.152 l 0.608,0.202 c -1.351,3.749 -3.868,5.776 -7.55,6.081 -3.725,0.27 -6.545,-0.997 -8.462,-3.801 -2.044,-3.605 -2.348,-7.17 -0.912,-10.691 1.452,-3.354 3.851,-5.244 7.195,-5.676 4.924,-0.257 8.166,1.753 9.729,6.026 z"
                 inkscape:connector-curvature="0" />
              <path
                 id="path2054"
                 d="m 128.122,323.276 c 0.118,0.151 0.202,0.304 0.253,0.456 0.727,2.939 0.372,5.523 -1.064,7.752 -2.018,2.323 -4.417,3.084 -7.195,2.281 -2.922,-0.996 -4.51,-3.074 -4.764,-6.232 -0.253,-4.831 1.773,-7.635 6.081,-8.412 3.328,-0.025 5.557,1.36 6.689,4.155 z m -8.918,3.496 c -0.051,2.171 0.844,3.454 2.686,3.851 2.212,-0.151 3.209,-1.773 2.989,-4.863 -0.262,-2.137 -1.343,-3.219 -3.243,-3.243 -1.841,0.794 -2.652,2.212 -2.432,4.255 z"
                 inkscape:connector-curvature="0" />
              <path
                 id="path2056"
                 d="m 131.501,319.679 h 0.253 0.203 0.253 0.203 0.253 0.659 0.203 0.861 0.406 0.354 l 0.051,9.07 c 0.887,1.706 2.17,2.077 3.851,1.114 0.507,-0.405 0.861,-0.878 1.064,-1.418 v -0.152 -1.014 -0.354 -0.354 -0.203 -0.254 -0.658 -0.203 -0.861 -0.151 -0.608 -0.203 -0.202 -0.151 -0.912 -0.659 -0.202 -0.861 -0.152 -0.608 h 1.013 0.253 0.152 0.202 0.203 0.202 0.203 0.861 0.152 0.608 v 13.833 h -1.013 -0.253 -0.152 -0.202 -0.203 -0.202 -0.203 -0.861 -0.152 -0.608 V 332.6 c -2.01,1.453 -4.021,1.621 -6.03,0.507 -0.912,-0.583 -1.588,-1.274 -2.026,-2.077 l -0.102,-0.051 -0.051,-0.152 -0.051,-0.152 c -0.076,-0.168 -0.126,-0.304 -0.152,-0.404 l -0.05,-0.152 c -0.161,-0.523 -0.262,-0.945 -0.304,-1.268 l -0.051,-1.114 v -0.354 -0.305 -0.861 -0.151 -0.608 -0.658 -0.203 -0.861 -0.152 -0.607 -0.558 -0.253 -0.659 -0.202 -0.861 -0.152 -0.608 h 0.203 z"
                 inkscape:connector-curvature="0" />
              <path
                 id="path2058"
                 d="m 160.621,327.584 c -0.279,2.964 -1.63,4.939 -4.054,5.928 -2.222,0.693 -4.164,0.406 -5.827,-0.861 v 5.017 h -0.861 -0.203 -0.253 -0.659 -0.202 -0.862 -0.152 -0.608 v -0.405 -0.406 -0.404 -0.406 -0.354 -0.406 -0.354 -0.151 -0.254 -0.152 -0.203 -0.151 -1.013 -0.203 -0.912 -0.305 -0.354 -1.014 -0.406 -0.404 -0.406 -0.405 -1.013 -0.152 -0.152 -1.57 -0.355 -0.304 -0.354 -0.305 -0.253 -0.304 -0.203 -0.912 -0.557 -0.203 -0.203 -0.202 -0.202 -0.861 -0.152 -0.608 h 0.862 0.203 0.253 0.659 0.203 0.861 0.406 0.354 v 0.558 c 0.979,-0.65 1.976,-1.039 2.989,-1.166 4.889,0.037 7.186,2.857 6.891,8.457 z m -9.729,-3.345 v 0.151 l -0.101,0.406 -0.102,0.354 v 2.888 c 0.414,1.436 1.309,2.247 2.686,2.433 1.554,0.11 2.567,-0.498 3.04,-1.824 0.473,-1.427 0.49,-2.778 0.051,-4.054 -0.448,-1.537 -1.545,-2.229 -3.293,-2.077 -1.031,0.313 -1.791,0.887 -2.281,1.723 z"
                 inkscape:connector-curvature="0" />
              <path
                 id="path2060"
                 d="m 174.793,323.276 c 0.118,0.151 0.202,0.304 0.253,0.456 0.727,2.939 0.372,5.523 -1.064,7.752 -2.018,2.323 -4.417,3.084 -7.195,2.281 -2.922,-0.996 -4.51,-3.074 -4.764,-6.232 -0.253,-4.831 1.773,-7.635 6.081,-8.412 3.328,-0.025 5.557,1.36 6.689,4.155 z m -8.918,3.496 c -0.051,2.171 0.844,3.454 2.686,3.851 2.212,-0.151 3.209,-1.773 2.989,-4.863 -0.262,-2.137 -1.343,-3.219 -3.243,-3.243 -1.841,0.794 -2.652,2.212 -2.432,4.255 z"
                 inkscape:connector-curvature="0" />
              <path
                 id="path2062"
                 d="m 190.029,322.162 0.051,0.151 0.05,0.152 0.051,0.151 c 0.084,0.145 0.135,0.279 0.152,0.406 l 0.203,0.607 v 0.152 c 0.118,0.607 0.168,1.098 0.152,1.469 v 8.26 h -1.014 -0.253 -0.152 -0.202 -0.203 -0.203 -0.203 -0.861 -0.152 -0.607 v -0.152 -0.253 -0.151 -0.203 -0.151 -1.014 -0.709 -0.557 -0.254 -0.152 -0.203 -0.151 -1.013 -0.203 -0.558 -0.507 -0.912 -0.152 -0.151 -0.202 -0.912 -0.203 c -0.085,-0.211 -0.136,-0.396 -0.152,-0.558 -0.405,-0.71 -0.946,-1.165 -1.621,-1.368 -1.402,-0.033 -2.433,0.507 -3.091,1.621 l -0.101,0.355 v 8.715 h -1.014 -0.253 -0.152 -0.203 -0.203 -0.203 -0.202 -0.861 -0.152 -0.608 v -0.152 -0.253 -0.151 -0.203 -0.153 -1.014 -0.354 -0.203 -0.254 -0.203 -0.252 -0.659 -0.203 -0.861 -0.151 -0.608 -0.354 -0.355 -0.304 -0.354 -0.305 -0.354 -0.305 -0.861 -0.305 -0.253 -0.304 -0.203 -0.912 -0.557 -0.203 -0.203 -0.202 -0.202 -0.861 -0.152 -0.608 h 1.013 0.253 0.152 0.203 0.202 0.203 0.203 0.861 0.152 0.608 c -0.018,0.347 0,0.634 0.051,0.861 0.844,-0.667 1.739,-1.072 2.686,-1.216 2.312,-0.078 4.12,0.867 5.42,2.836 z"
                 inkscape:connector-curvature="0" />
              <path
                 id="path2064"
                 d="m 202.462,314.105 h 0.406 0.151 0.152 1.57 0.354 0.305 0.354 0.304 0.254 0.304 0.202 0.912 0.558 0.203 0.202 0.203 0.203 0.861 0.151 0.608 0.152 l 0.101,0.051 h 0.152 l 0.354,0.051 0.152,0.05 0.709,0.152 c 3.167,1.521 4.502,3.919 4.003,7.195 -1.132,3.876 -3.716,5.565 -7.753,5.067 h -0.202 -0.558 -0.253 -0.152 -0.202 -0.152 -1.014 v 6.789 h -0.658 -0.203 -0.912 -0.202 -0.203 -0.202 -0.861 -0.152 -0.608 v -0.152 -0.202 -0.151 -0.203 -0.912 -0.405 -0.405 -0.152 -1.014 -0.202 -0.253 -0.203 -0.254 -0.658 -0.203 -0.861 -0.152 -0.607 -0.203 -0.253 -0.659 -0.202 -0.861 -0.152 -0.608 -0.354 -0.406 -0.405 -0.405 -0.152 -0.152 -1.57 -0.354 -0.304 -0.355 -0.304 -0.253 -0.305 -0.202 -0.912 -0.558 -0.203 -0.202 -0.202 -0.203 -0.861 -0.152 -0.607 h 0.407 z m 3.598,8.918 h 0.203 0.202 0.203 0.558 0.557 0.912 0.152 0.152 0.202 0.912 0.203 c 0.211,-0.084 0.396,-0.135 0.558,-0.152 1.41,-0.836 1.883,-1.984 1.418,-3.445 -0.312,-0.727 -0.802,-1.233 -1.469,-1.521 h -0.152 c -0.523,-0.151 -0.996,-0.202 -1.419,-0.151 h -0.253 -0.203 -0.253 -0.659 -0.202 -0.862 -0.151 -0.608 v 5.269 z"
                 inkscape:connector-curvature="0" />
              <path
                 id="path2066"
                 d="m 228.846,320.844 0.051,0.102 c 0.135,0.17 0.236,0.338 0.304,0.507 0.178,0.263 0.296,0.499 0.355,0.71 v 0.202 c 0.101,0.329 0.151,0.616 0.151,0.861 v 4.966 c -0.034,0.836 0,1.529 0.102,2.078 0.413,0.43 0.887,0.701 1.419,0.811 l -0.102,0.152 -0.102,0.252 -0.102,0.203 -0.051,0.152 -0.05,0.152 -0.102,0.151 -0.203,0.507 -0.101,0.152 -0.051,0.152 -0.051,0.151 -0.051,0.102 -0.354,0.76 c -1.504,0.009 -2.636,-0.464 -3.396,-1.419 -1.443,1.436 -3.234,1.791 -5.371,1.064 -1.968,-0.541 -3.116,-1.74 -3.445,-3.598 0.017,-2.728 1.301,-4.315 3.851,-4.764 0.136,-0.084 0.271,-0.135 0.405,-0.151 h 0.152 c 0.051,-0.034 0.102,-0.051 0.152,-0.051 l 0.152,-0.051 0.912,-0.151 0.404,-0.051 0.152,-0.051 0.861,-0.051 c 0.456,-0.067 0.828,-0.084 1.115,-0.051 0.127,-1.883 -0.904,-2.525 -3.091,-1.926 l -0.152,0.051 -0.405,0.051 -0.354,0.152 -0.152,0.051 -0.507,0.152 c -0.262,0.177 -0.498,0.295 -0.709,0.354 -0.287,0.221 -0.574,0.372 -0.861,0.457 l -0.355,-0.659 -0.101,-0.051 -0.051,-0.151 -0.102,-0.102 -0.051,-0.152 c -0.22,-0.254 -0.372,-0.49 -0.456,-0.709 -0.135,-0.127 -0.22,-0.262 -0.253,-0.406 -0.22,-0.211 -0.354,-0.43 -0.405,-0.658 l 0.102,-0.051 0.151,-0.102 0.102,-0.051 c 0.228,-0.152 0.431,-0.27 0.608,-0.354 0.135,-0.093 0.27,-0.144 0.404,-0.151 l 0.102,-0.102 c 0.312,-0.144 0.583,-0.245 0.811,-0.305 l 0.102,-0.102 h 0.152 c 0.16,-0.101 0.295,-0.168 0.405,-0.202 h 0.152 c 0.228,-0.118 0.447,-0.186 0.658,-0.202 0.465,-0.195 0.903,-0.296 1.317,-0.305 l 0.152,-0.051 c 2.318,-0.149 4.244,0.426 5.781,1.726 z m -3.345,6.638 h -0.151 c -0.203,0.059 -0.372,0.093 -0.507,0.102 h -0.152 c -0.051,0.033 -0.102,0.051 -0.151,0.051 l -0.203,0.05 h -0.151 l -0.203,0.051 -0.305,0.051 c -0.05,0.034 -0.101,0.051 -0.151,0.051 l -0.202,0.051 -0.152,0.05 c -0.474,0.119 -0.845,0.237 -1.115,0.355 -0.354,0.473 -0.456,0.963 -0.304,1.469 0.845,1.184 2.061,1.386 3.648,0.608 l 0.405,-0.608 0.051,-0.202 v -0.202 -0.152 -0.254 -0.152 -0.202 -0.151 -1.014 h -0.152 z"
                 inkscape:connector-curvature="0" />
              <path
                 id="path2068"
                 d="m 240.079,319.477 h 0.152 1.013 v 3.648 c -1.95,-0.254 -3.353,0.371 -4.206,1.874 v 0.152 c -0.151,0.397 -0.219,0.785 -0.202,1.165 v 7.195 h -0.861 -0.202 -0.254 -0.658 -0.203 -0.861 -0.152 -0.607 v -0.152 -0.253 -0.151 -0.203 -0.152 -1.014 -0.354 -1.014 -0.406 -0.404 -0.406 -0.405 -1.013 -0.152 -0.152 -1.57 -0.355 -0.304 -0.354 -0.305 -0.253 -0.304 -0.203 -0.912 -0.557 -0.203 -0.203 -0.202 -0.202 -0.861 -0.152 -0.608 h 0.861 0.202 0.253 0.659 0.203 0.861 0.151 0.608 v 1.317 c 0.896,-0.903 1.908,-1.428 3.04,-1.57 h 0.203 z"
                 inkscape:connector-curvature="0" />
              <path
                 id="path2070"
                 d="m 244.775,314.207 h 0.203 0.253 0.658 0.203 0.861 0.405 0.354 v 10.285 l 0.203,-0.202 0.203,-0.203 0.151,-0.202 0.102,-0.102 0.102,-0.051 c 0.126,-0.169 0.245,-0.305 0.354,-0.405 l 0.102,-0.051 c 0.169,-0.236 0.354,-0.423 0.557,-0.558 l 0.152,-0.152 c 0.169,-0.236 0.355,-0.422 0.558,-0.557 0.109,-0.16 0.228,-0.279 0.354,-0.355 0.109,-0.16 0.229,-0.277 0.355,-0.354 l 0.05,-0.102 0.102,-0.051 c 0.127,-0.169 0.245,-0.305 0.354,-0.406 l 0.152,-0.101 c 0.033,-0.06 0.067,-0.093 0.102,-0.102 l 0.051,-0.101 0.101,-0.102 0.102,-0.051 0.051,-0.102 0.102,-0.051 c 0.126,-0.169 0.245,-0.304 0.354,-0.405 h 0.304 0.659 0.202 0.912 0.558 0.203 0.202 0.203 0.202 0.861 0.406 0.354 l -0.203,0.304 -0.253,0.203 -0.203,0.254 -0.658,0.658 -0.102,0.051 c -0.169,0.228 -0.338,0.396 -0.507,0.506 -0.169,0.229 -0.338,0.397 -0.507,0.508 l -0.051,0.101 -0.102,0.102 -0.101,0.102 -0.102,0.05 c -0.034,0.06 -0.067,0.094 -0.102,0.102 l -0.558,0.608 -0.506,0.456 -0.152,0.203 -0.152,0.102 -0.102,0.151 -0.151,0.102 c -0.11,0.16 -0.229,0.278 -0.354,0.354 -0.237,0.33 -0.474,0.582 -0.71,0.76 l 0.051,0.152 0.102,0.051 0.202,0.354 0.051,0.102 c 0.118,0.151 0.203,0.287 0.254,0.405 0.253,0.338 0.438,0.625 0.557,0.861 l 0.203,0.305 0.152,0.303 0.202,0.203 0.051,0.102 0.405,0.709 c 0.076,0.085 0.127,0.17 0.152,0.254 0.178,0.203 0.312,0.389 0.405,0.557 l 0.151,0.254 0.102,0.152 0.051,0.102 c 0.118,0.16 0.203,0.295 0.254,0.404 0.126,0.152 0.211,0.305 0.253,0.457 l 0.152,0.151 0.101,0.152 0.102,0.202 0.102,0.102 0.051,0.152 0.203,0.354 0.101,0.051 0.051,0.151 0.203,0.355 c 0.22,0.236 0.371,0.473 0.456,0.709 h -0.305 -1.57 -0.709 -0.152 -0.254 -0.151 -0.203 -0.151 -1.014 l -0.507,-0.76 -0.102,-0.254 c -0.245,-0.27 -0.414,-0.523 -0.507,-0.76 l -0.202,-0.254 -0.102,-0.252 -0.202,-0.254 -0.102,-0.203 c -0.17,-0.211 -0.287,-0.414 -0.355,-0.607 l -0.151,-0.203 -0.304,-0.405 -0.102,-0.151 -0.051,-0.152 -0.102,-0.152 -0.102,-0.102 c -0.16,-0.329 -0.329,-0.6 -0.507,-0.811 l -0.253,0.254 c -0.118,0.16 -0.22,0.278 -0.305,0.354 l -0.151,0.152 -0.102,0.102 -0.101,0.051 c -0.161,0.229 -0.33,0.414 -0.508,0.558 v 3.851 h -0.861 -0.202 -0.253 -0.659 -0.202 -0.862 -0.151 -0.608 v -0.405 -1.013 -0.406 -0.152 -0.202 -0.912 -0.151 -1.014 -0.406 -0.202 -0.912 -0.151 -0.152 -1.57 -0.355 -0.152 -0.202 -0.912 -0.71 -0.151 -0.253 -0.152 -0.203 -0.152 -1.013 -0.862 -0.151 -0.608 -0.658 -0.203 -0.861 -0.152 -0.613 -0.558 -0.253 -0.658 -0.203 -0.861 -0.152 -0.607 h 0.864 z"
                 inkscape:connector-curvature="0" />
              <path
                 id="path2072"
                 d="m 262.899,315.879 c 0.025,0.954 -0.295,1.697 -0.963,2.229 -1.528,0.609 -2.609,0.237 -3.242,-1.114 -0.338,-1.521 0.202,-2.499 1.621,-2.938 1.394,-0.027 2.255,0.581 2.584,1.823 z m -3.192,3.85 h 0.203 0.253 0.659 0.202 0.861 0.406 0.354 v 13.833 h -0.71 -0.557 -0.254 -0.152 -0.202 -0.152 -1.013 -0.152 -0.608 v -0.152 -0.253 -0.151 -0.203 -0.152 -1.014 -0.354 -0.202 -0.254 -0.203 -0.253 -0.659 -0.202 -0.861 -0.151 -0.608 -0.354 -0.355 -0.304 -0.354 -0.305 -0.354 -0.305 -0.861 -0.305 -0.253 -0.304 -0.203 -0.912 -0.557 -0.203 -0.203 -0.202 -0.202 -0.861 -0.152 -0.608 h 0.862 z"
                 inkscape:connector-curvature="0" />
              <path
                 id="path2074"
                 d="m 277.781,322.162 0.051,0.151 0.05,0.152 0.051,0.151 c 0.085,0.145 0.136,0.279 0.152,0.406 l 0.203,0.607 v 0.152 c 0.118,0.607 0.168,1.098 0.151,1.469 v 8.26 h -1.013 -0.254 -0.152 -0.202 -0.202 -0.203 -0.203 -0.861 -0.152 -0.607 v -0.152 -0.253 -0.151 -0.203 -0.151 -1.014 -0.709 -0.557 -0.254 -0.152 -0.203 -0.151 -1.013 -0.203 -0.558 -0.507 -0.912 -0.152 -0.151 -0.202 -0.912 -0.203 c -0.084,-0.211 -0.135,-0.396 -0.152,-0.558 -0.405,-0.71 -0.945,-1.165 -1.621,-1.368 -1.402,-0.033 -2.433,0.507 -3.091,1.621 l -0.102,0.355 v 8.715 h -1.014 -0.253 -0.152 -0.202 -0.203 -0.202 -0.203 -0.861 -0.152 -0.607 v -0.152 -0.253 -0.151 -0.203 -0.153 -1.014 -0.354 -0.203 -0.254 -0.203 -0.252 -0.659 -0.203 -0.861 -0.151 -0.608 -0.354 -0.355 -0.304 -0.354 -0.305 -0.354 -0.305 -0.861 -0.305 -0.253 -0.304 -0.203 -0.912 -0.557 -0.203 -0.203 -0.202 -0.202 -0.861 -0.152 -0.608 h 1.014 0.253 0.151 0.203 0.203 0.202 0.203 0.861 0.151 0.608 c -0.017,0.347 0,0.634 0.051,0.861 0.845,-0.667 1.739,-1.072 2.686,-1.216 2.312,-0.078 4.119,0.867 5.42,2.836 z"
                 inkscape:connector-curvature="0" />
              <path
                 id="path2076"
                 d="m 289.927,320.338 c 0.059,-0.254 0.075,-0.473 0.05,-0.659 h 0.862 0.202 0.253 0.659 0.202 0.861 0.152 0.608 v 13.327 l -0.051,0.151 c -0.009,0.431 -0.076,0.802 -0.202,1.114 -0.051,0.236 -0.102,0.423 -0.152,0.558 l -0.102,0.102 c -0.304,0.71 -0.709,1.284 -1.216,1.723 l -0.152,0.102 -0.151,0.051 c -0.085,0.109 -0.187,0.194 -0.305,0.253 l -0.152,0.051 c -0.033,0.043 -0.067,0.059 -0.101,0.051 l -0.102,0.102 -0.152,0.051 -0.608,0.304 c -3.513,0.861 -6.688,0.473 -9.525,-1.165 l 0.051,-0.203 0.456,-0.709 0.05,-0.152 0.051,-0.102 0.051,-0.102 0.102,-0.202 0.102,-0.152 c 0.186,-0.278 0.32,-0.515 0.405,-0.709 l 0.051,-0.102 0.102,-0.101 c 0.109,-0.236 0.211,-0.423 0.304,-0.559 0.312,0.11 0.565,0.246 0.76,0.406 1.867,0.827 3.707,1.063 5.523,0.709 0.152,-0.127 0.304,-0.211 0.456,-0.254 0.109,-0.16 0.228,-0.278 0.354,-0.354 l 0.051,-0.102 0.203,-0.355 0.101,-0.354 v -0.912 c -2.373,1.014 -4.534,0.929 -6.485,-0.253 -1.799,-1.166 -2.745,-2.77 -2.838,-4.814 -0.186,-4.535 1.689,-7.068 5.625,-7.6 1.4,-0.086 2.616,0.201 3.647,0.86 z m -5.422,5.219 c -0.262,1.402 0.076,2.517 1.013,3.344 0.896,0.533 1.808,0.668 2.736,0.406 1.419,-0.321 1.993,-1.773 1.723,-4.357 -0.456,-1.537 -1.537,-2.23 -3.243,-2.078 -1.393,0.388 -2.136,1.282 -2.229,2.685 z"
                 inkscape:connector-curvature="0" />
            </g>
          </g>
        </g>
        <path
           sodipodi:nodetypes="cssscccsssssssss"
           inkscape:connector-curvature="0"
           id="path2084"
           d="m -182.1077,168.96466 7.2248,12.18196 c 2.48164,4.18438 3.05315,7.20209 6.35771,8.82387 11.8955,5.838 24.2812,6.0064 37.20077,0 3.32357,-1.54513 3.483,-4.89906 6.35771,-8.82387 15.38701,-20.92512 16.55503,-23.63381 -6.35771,-32.96318 -24.09472,-6.52703 -62.67277,0.11914 -50.78328,20.78122 z m 13.58251,-18.05006 h 37.20077 c 2.44907,0 7.57038,7.29279 4.39022,6.09273 l -13.02966,-4.91685 c -3.18017,-1.20007 11.01313,34.31252 8.63944,35.14933 -12.58834,4.43784 -24.95301,3.59818 -37.20077,0 -2.39597,-0.7039 11.42729,-36.2229 8.24855,-35.01904 l -12.63877,4.78656 c -3.17874,1.20385 1.94116,-6.09273 4.39022,-6.09273 z"
           style="color:#000000;font-style:normal;font-variant:normal;font-weight:normal;font-stretch:normal;font-size:medium;line-height:normal;font-family:sans-serif;font-variant-ligatures:normal;font-variant-position:normal;font-variant-caps:normal;font-variant-numeric:normal;font-variant-alternates:normal;font-feature-settings:normal;text-indent:0;text-align:start;text-decoration:none;text-decoration-line:none;text-decoration-style:solid;text-decoration-color:#000000;letter-spacing:normal;word-spacing:normal;text-transform:none;writing-mode:lr-tb;direction:ltr;text-orientation:mixed;dominant-baseline:auto;baseline-shift:baseline;text-anchor:start;white-space:normal;shape-padding:0;clip-rule:nonzero;display:inline;overflow:visible;visibility:visible;opacity:0.99299999;isolation:auto;mix-blend-mode:normal;color-interpolation:sRGB;color-interpolation-filters:linearRGB;solid-color:#000000;solid-opacity:1;vector-effect:none;fill:#083864;fill-opacity:1;fill-rule:nonzero;stroke:none;stroke-width:2.31799889;stroke-linecap:round;stroke-linejoin:miter;stroke-miterlimit:4;stroke-dasharray:none;stroke-dashoffset:0;stroke-opacity:1;paint-order:markers fill stroke;color-rendering:auto;image-rendering:auto;shape-rendering:auto;text-rendering:auto;enable-background:accumulate" />
        <g
           transform="matrix(0.16030889,0,0,0.11932035,-240.89752,208.13556)"
           id="g2092">
          <path
             sodipodi:nodetypes="ssssssssssssssssss"
             inkscape:connector-curvature="0"
             id="path2086"
             d="m 456.01481,-731.84837 c -20.18099,0 -36.60547,16.42449 -36.60547,36.60547 v 100.14063 c 0,20.18098 17.57897,29.87756 36.60547,36.60547 68.49025,24.21865 139.8029,24.91725 214.18945,0 19.13594,-6.40996 36.60547,-16.42449 36.60547,-36.60547 V -695.2429 c 0,-20.18098 -16.42449,-36.60547 -36.60547,-36.60547 z m 0,11.33008 h 214.18945 c 14.10085,0 25.27734,11.17454 25.27734,25.27539 v 100.14063 c 0,14.10085 -11.61049,21.80588 -25.27734,25.27734 -72.47944,18.4102 -143.67102,14.92689 -214.18945,0 -13.79519,-2.92008 -25.27735,-11.17649 -25.27735,-25.27734 V -695.2429 c 0,-14.10085 11.1765,-25.27539 25.27735,-25.27539 z"
             style="color:#000000;font-style:normal;font-variant:normal;font-weight:normal;font-stretch:normal;font-size:medium;line-height:normal;font-family:sans-serif;font-variant-ligatures:normal;font-variant-position:normal;font-variant-caps:normal;font-variant-numeric:normal;font-variant-alternates:normal;font-feature-settings:normal;text-indent:0;text-align:start;text-decoration:none;text-decoration-line:none;text-decoration-style:solid;text-decoration-color:#000000;letter-spacing:normal;word-spacing:normal;text-transform:none;writing-mode:lr-tb;direction:ltr;text-orientation:mixed;dominant-baseline:auto;baseline-shift:baseline;text-anchor:start;white-space:normal;shape-padding:0;clip-rule:nonzero;display:inline;overflow:visible;visibility:visible;opacity:0.99299999;isolation:auto;mix-blend-mode:normal;color-interpolation:sRGB;color-interpolation-filters:linearRGB;solid-color:#000000;solid-opacity:1;vector-effect:none;fill:#083864;fill-opacity:1;fill-rule:nonzero;stroke:none;stroke-width:11.32867908;stroke-linecap:round;stroke-linejoin:miter;stroke-miterlimit:4;stroke-dasharray:none;stroke-dashoffset:0;stroke-opacity:1;paint-order:markers fill stroke;color-rendering:auto;image-rendering:auto;shape-rendering:auto;text-rendering:auto;enable-background:accumulate" />
          <path
             style="opacity:0.99299999;fill:#072d53;fill-opacity:1;stroke:none;stroke-width:10.25154114;stroke-linecap:round;stroke-linejoin:miter;stroke-miterlimit:4;stroke-dasharray:none;stroke-dashoffset:0;stroke-opacity:1;paint-order:markers fill stroke"
             d="m 588.72997,-619.02701 c 28.27733,-28.71622 58.13447,-42.89546 95.77149,0 0.22671,0.25838 0.60353,-0.33246 0.60353,-0.7454 -7.76862,-54.33897 -95.71628,-32.86167 -96.9786,0 0,0.41294 0.36336,0.98934 0.60358,0.7454 z"
             id="path2088"
             inkscape:connector-curvature="0"
             sodipodi:nodetypes="ssccs" />
          <path
             sodipodi:nodetypes="ssccs"
             inkscape:connector-curvature="0"
             id="path2090"
             d="m 545.93244,-619.02701 c -28.27733,-28.71622 -58.13447,-42.89546 -95.77149,0 -0.22671,0.25838 -0.60353,-0.33245 -0.60353,-0.7454 7.76862,-54.33897 95.71628,-32.86167 96.9786,0 0,0.41295 -0.36336,0.98935 -0.60358,0.7454 z"
             style="opacity:0.99299999;fill:#072d53;fill-opacity:1;stroke:none;stroke-width:10.25154114;stroke-linecap:round;stroke-linejoin:miter;stroke-miterlimit:4;stroke-dasharray:none;stroke-dashoffset:0;stroke-opacity:1;paint-order:markers fill stroke" />
        </g>
      </g>
      <ellipse
         style="opacity:1;fill:none;fill-opacity:0.96862745;stroke:#000000;stroke-width:3.01612592;stroke-linecap:round;stroke-linejoin:miter;stroke-miterlimit:4;stroke-dasharray:none;stroke-dashoffset:0;stroke-opacity:1;paint-order:markers fill stroke"
         id="path1898"
         cx="-520.0639"
         cy="114.4371"
         rx="13.496683"
         ry="11.028233" />
      <rect
         style="opacity:1;fill:#60a0a2;fill-opacity:0.96862745;stroke:none;stroke-width:0.67795479;stroke-linecap:round;stroke-linejoin:miter;stroke-miterlimit:4;stroke-dasharray:none;stroke-dashoffset:0;stroke-opacity:1;paint-order:markers fill stroke"
         id="rect1896"
         width="145.20259"
         height="20.47698"
         x="-555.79065"
         y="113.81878"
         ry="7.5820017" />
      <path
         id="path1760"
         d="m -352.93127,20.872289 h -20.41759 v 57.396869 h 8.16341 v 26.355652 h -15.51713 V 17.539567 c 0.006,-17.69057875 -17.54741,-32.028687 -39.19767,-32.028687 h -129.03751 c -21.64422,0 -39.19767,14.33810825 -39.19767,32.028687 V 102.95598 H -601.6102 V 74.921625 h 8.5743 V 17.539567 h -20.41155 v 57.382058 h 8.5743 v 30.710415 h 16.73772 v 62.72922 c 0,12.11629 8.25405,22.67732 20.41759,28.11336 v 16.57967 h 34.29721 v -12.66928 h 97.18147 v 12.67422 h 34.30929 v -16.26369 c 12.60465,-5.3126 21.22729,-16.05137 21.22729,-28.43922 v -61.07027 h 18.78612 V 78.264221 h 8.98519 z M -529.32986,-7.8236771 h 91.45922 V 9.5360986 h -91.45922 z m 9.79489,174.8419771 h -50.63008 v -18.67312 h 50.63008 z m 122.49952,0 h -50.63007 v -18.67312 h 50.63007 z m 0,-60.05811 c 0,0 -9.80093,25.36324 -88.19627,25.36324 -78.40743,0 -86.57689,-25.36324 -86.57689,-25.36324 V 18.867719 h 174.77316 z"
         style="fill:#083864;fill-opacity:0.99607843;stroke-width:5.46205187"
         inkscape:connector-curvature="0" />
    </g>
    <g
       id="g2234">
      <text
         id="text2164"
         y="261.92493"
         x="108.90844"
         style="font-style:normal;font-variant:normal;font-weight:bold;font-stretch:normal;font-size:20.90060997px;line-height:1.25;font-family:sans-serif;-inkscape-font-specification:'sans-serif, Bold';font-variant-ligatures:normal;font-variant-position:normal;font-variant-caps:normal;font-variant-numeric:normal;font-variant-alternates:normal;font-feature-settings:normal;text-indent:0;text-align:start;text-decoration:none;text-decoration-line:none;text-decoration-style:solid;text-decoration-color:#000000;letter-spacing:0px;word-spacing:0px;text-transform:none;writing-mode:lr-tb;direction:ltr;text-orientation:mixed;dominant-baseline:auto;baseline-shift:baseline;text-anchor:start;white-space:normal;shape-padding:0;opacity:0.97000002;vector-effect:none;fill:#ffffff;fill-opacity:0.99607843;stroke:none;stroke-width:1.36325562;stroke-linecap:butt;stroke-linejoin:miter;stroke-miterlimit:4;stroke-dasharray:none;stroke-dashoffset:0;stroke-opacity:1"
         xml:space="preserve"><tspan
           style="fill:#ffffff;stroke-width:1.36325562"
           y="261.92493"
           x="108.90844"
           id="tspan2162"
           sodipodi:role="line">ALL</tspan></text>
      <g
         id="g2174"
         transform="translate(614.4995,72.643318)">
        <rect
           ry="8.5684261"
           y="149.31863"
           x="-565.67462"
           height="17.136852"
           width="39.985992"
           id="rect2168"
           style="opacity:1;fill:#f0e68c;fill-opacity:0.96862745;stroke:#083864;stroke-width:0.67748034;stroke-linecap:round;stroke-linejoin:miter;stroke-miterlimit:4;stroke-dasharray:none;stroke-dashoffset:0;stroke-opacity:0.99607843;paint-order:markers fill stroke" />
        <rect
           style="opacity:1;fill:#f0e68c;fill-opacity:0.96862745;stroke:#083864;stroke-width:0.67748034;stroke-linecap:round;stroke-linejoin:miter;stroke-miterlimit:4;stroke-dasharray:none;stroke-dashoffset:0;stroke-opacity:0.99607843;paint-order:markers fill stroke"
           id="rect2170"
           width="39.985992"
           height="17.136852"
           x="-442.79422"
           y="149.31863"
           ry="8.5684261" />
      </g>
      <text
         id="text2178"
         y="79.858353"
         x="89.859123"
         style="font-style:normal;font-variant:normal;font-weight:bold;font-stretch:normal;font-size:18.00000191px;line-height:1.25;font-family:sans-serif;-inkscape-font-specification:'sans-serif, Bold';font-variant-ligatures:normal;font-variant-position:normal;font-variant-caps:normal;font-variant-numeric:normal;font-variant-alternates:normal;font-feature-settings:normal;text-indent:0;text-align:start;text-decoration:none;text-decoration-line:none;text-decoration-style:solid;text-decoration-color:#000000;letter-spacing:0px;word-spacing:0px;text-transform:none;writing-mode:lr-tb;direction:ltr;text-orientation:mixed;dominant-baseline:auto;baseline-shift:baseline;text-anchor:start;white-space:normal;shape-padding:0;opacity:0.97000002;vector-effect:none;fill:#083864;fill-opacity:0.99607843;stroke:none;stroke-width:1.36325562;stroke-linecap:butt;stroke-linejoin:miter;stroke-miterlimit:4;stroke-dasharray:none;stroke-dashoffset:0;stroke-opacity:1"
         xml:space="preserve"><tspan
           style="font-style:normal;font-variant:normal;font-weight:bold;font-stretch:normal;font-size:18.00000191px;font-family:sans-serif;-inkscape-font-specification:'sans-serif, Bold';font-variant-ligatures:normal;font-variant-caps:normal;font-variant-numeric:normal;font-feature-settings:normal;text-align:start;writing-mode:lr-tb;text-anchor:start;stroke-width:1.36325562"
           y="79.858353"
           x="89.859123"
           id="tspan2176"
           sodipodi:role="line">ALL 888</tspan></text>
    </g>
  </g>
  <g
     id="g2225"
     transform="matrix(0.06644828,0,0,0.06644828,7.16164,-14.003276)">
    <rect
       y="13.270564"
       x="331.56854"
       height="274.46646"
       width="11.516074"
       id="rect1767"
       style="opacity:1;fill:#d3d3d3;fill-opacity:0.99607843;stroke:none;stroke-width:1.43669271;stroke-linecap:round;stroke-linejoin:miter;stroke-miterlimit:4;stroke-dasharray:none;stroke-dashoffset:0;stroke-opacity:0.99607843;paint-order:markers fill stroke" />
    <g
       transform="matrix(0.61377447,0,0,0.61377447,489.59467,197.42763)"
       id="g2010">
      <rect
         style="opacity:1;fill:#409d9c;fill-opacity:0.99607843;stroke:none;stroke-width:2.34075022;stroke-linecap:round;stroke-linejoin:miter;stroke-miterlimit:4;stroke-dasharray:none;stroke-dashoffset:0;stroke-opacity:0.99607843;paint-order:markers fill stroke"
         id="rect1769"
         width="102.15254"
         height="64.627121"
         x="-359.61865"
         y="-298.54028" />
      <path
         inkscape:connector-curvature="0"
         id="path1890"
         d="m -311.80603,-244.77998 c -2.98905,-0.41223 -6.42035,-2.10914 -10.90956,-5.3952 -8.999,-6.58717 -14.30893,-9.57828 -19.63663,-11.06136 -1.44645,-0.40265 -4.67622,-0.97323 -7.17726,-1.26794 -2.50105,-0.29473 -4.58258,-0.57106 -4.62562,-0.61412 -0.043,-0.043 0.79026,-1.10002 1.85181,-2.34882 1.06155,-1.24882 3.45867,-4.23957 5.32693,-6.64611 5.20645,-6.70648 6.66052,-7.91385 10.51486,-8.73079 2.11485,-0.44827 4.98048,-0.5236 4.97772,-0.13087 -9.2e-4,0.14464 -1.5719,2.23541 -3.49086,4.64617 -3.79247,4.7644 -5.15366,6.95815 -4.83412,7.79084 0.12272,0.31984 1.24071,0.78561 2.77588,1.15647 5.72275,1.3825 11.90861,4.01747 15.52423,6.61281 0.9531,0.68415 3.52491,2.86746 5.71513,4.8518 2.19023,1.98433 4.91998,4.18148 6.06609,4.88256 5.00706,3.06275 13.12785,2.61976 17.54658,-0.95717 1.23248,-0.99767 1.15492,-0.88027 -0.37848,0.57296 -2.71483,2.57287 -6.72054,5.12744 -9.27951,5.91783 -2.66597,0.82343 -6.96782,1.13459 -9.96719,0.72094 z m 27.1441,-6.68752 c 0.15928,-0.27009 1.49676,-2.06901 2.97216,-3.99761 3.88358,-5.07646 4.90988,-6.67865 4.90988,-7.66502 0,-0.76723 -0.25086,-0.94677 -2.01627,-1.44318 -10.46846,-2.94355 -13.81308,-4.71722 -21.47757,-11.38964 -2.02501,-1.76291 -4.62863,-3.8325 -5.78579,-4.5991 -5.26113,-3.48537 -11.84539,-3.71842 -16.53366,-0.5852 -1.40298,0.93762 -1.70035,1.32032 -1.70035,2.18832 v 1.05196 l 3.79625,0.41995 c 2.08794,0.23096 4.32521,0.5945 4.9717,0.80787 1.89639,0.62586 4.95842,2.80313 9.62734,6.84559 6.47625,5.60727 8.97934,7.08781 16.58246,9.80818 1.49466,0.53479 2.71757,1.12099 2.71757,1.30266 0,0.39244 -2.84302,4.13936 -3.64716,4.80675 -0.48387,0.40158 -0.56069,0.36336 -0.56069,-0.27891 0,-0.88332 0.24729,-0.84171 -5.25981,-0.88506 -5.2933,-0.0417 -6.02542,-0.33176 -10.69496,-4.23754 -9.28173,-7.76363 -12.18186,-9.66427 -18.69486,-12.25184 -2.35013,-0.93369 -4.27297,-1.8463 -4.27297,-2.02801 0,-0.5993 3.17548,-4.47091 5.72623,-6.98152 4.51833,-4.44722 9.49941,-6.912 14.62331,-7.23601 5.46459,-0.34558 9.63427,1.43397 18.18575,7.76134 9.41292,6.96478 13.51134,8.61071 27.15333,10.90481 1.22703,0.20634 1.30309,0.28195 0.87664,0.87136 -2.47069,3.41479 -10.33389,13.10827 -11.45447,14.12065 -2.31083,2.08769 -4.03184,2.78712 -7.37056,2.99542 -2.47817,0.15459 -2.91571,0.10445 -2.6735,-0.30622 z"
         style="fill:#f8cc22;stroke-width:0.3506541" />
    </g>
    <g
       transform="matrix(0.61377447,0,0,0.61377447,470.24598,216.09774)"
       id="g2142">
      <rect
         style="opacity:1;fill:#409d9c;fill-opacity:0.99607843;stroke:none;stroke-width:2.76431441;stroke-linecap:round;stroke-linejoin:miter;stroke-miterlimit:4;stroke-dasharray:none;stroke-dashoffset:0;stroke-opacity:0.99607843;paint-order:markers fill stroke"
         id="rect2121"
         width="45.698429"
         height="45.698277"
         x="-241.08221"
         y="-376.51898"
         ry="9.5748768" />
      <g
         id="g2119"
         transform="matrix(0.75000003,0,0,0.75000003,-234.86463,-370.30146)"
         style="fill:#ffffff">
        <g
           id="g2063"
           style="fill:#ffffff">
	<path
   id="path2061"
   d="M 35.633,0 H 8.718 C 5.953,0 3.709,2.438 3.709,5.442 v 29.251 c 0,1.994 0.992,3.733 2.464,4.682 v 3.122 c 0,1.024 1.658,1.854 3.703,1.854 2.046,0 3.704,-0.829 3.704,-1.854 v -2.36 h 4.535 V 40.13 h 9.373 v 0.007 h 3.479 v 2.36 c 0,1.024 1.658,1.854 3.703,1.854 2.045,0 3.703,-0.829 3.703,-1.854 v -3.252 c 1.364,-0.972 2.269,-2.646 2.269,-4.552 V 5.442 C 40.642,2.438 38.399,0 35.633,0 Z M 14.391,2.324 H 29.96 V 3.836 H 14.391 Z M 7.685,31.281 v -3.635 h 9.826 v 3.635 z m 10.43,8.394 v -2.882 h 9.373 v 2.882 z m 19.049,-8.394 h -9.827 v -3.635 h 9.827 z m 0.433,-12.493 c 0,0.373 -0.652,0.676 -1.459,0.676 H 8.213 c -0.806,0 -1.458,-0.303 -1.458,-0.676 V 5.871 c 0,-0.374 0.652,-0.673 1.458,-0.673 h 27.925 c 0.807,0 1.459,0.299 1.459,0.673 z"
   style="fill:#ffffff"
   inkscape:connector-curvature="0" />

</g>
        <g
           id="g2065"
           style="fill:#ffffff">
</g>
        <g
           id="g2067"
           style="fill:#ffffff">
</g>
        <g
           id="g2069"
           style="fill:#ffffff">
</g>
        <g
           id="g2071"
           style="fill:#ffffff">
</g>
        <g
           id="g2073"
           style="fill:#ffffff">
</g>
        <g
           id="g2075"
           style="fill:#ffffff">
</g>
        <g
           id="g2077"
           style="fill:#ffffff">
</g>
        <g
           id="g2079"
           style="fill:#ffffff">
</g>
        <g
           id="g2081"
           style="fill:#ffffff">
</g>
        <g
           id="g2083"
           style="fill:#ffffff">
</g>
        <g
           id="g2085"
           style="fill:#ffffff">
</g>
        <g
           id="g2087"
           style="fill:#ffffff">
</g>
        <g
           id="g2089"
           style="fill:#ffffff">
</g>
        <g
           id="g2091"
           style="fill:#ffffff">
</g>
        <g
           id="g2093"
           style="fill:#ffffff">
</g>
      </g>
    </g>
  </g>
</svg>
